<svg width="120" height="21" viewBox="0 0 120 21" fill="none" xmlns="http://www.w3.org/2000/svg">
<g clip-path="url(#clip0_3203_12376)">
<path d="M21.3808 10.4996H16.9179H10.6908V16.6173L4.46298 10.5004L10.6908 4.38273L15.8165 9.41787H20.2795L10.6908 0L0 10.5004L10.6908 21L21.3816 10.5004L21.3808 10.4996Z" fill="#204BFF"/>
<path d="M35.0139 8.81733H33.3965C33.1843 7.95723 32.8096 7.35668 32.27 7.01651C31.7312 6.67633 30.9556 6.50586 29.9451 6.50586C28.9343 6.50586 28.2386 6.6593 27.7431 6.96692C27.2468 7.27454 26.8617 7.72321 26.588 8.31444C26.3135 8.90567 26.1762 9.58911 26.1762 10.364C26.1762 11.1389 26.3135 11.8324 26.588 12.4135C26.8625 12.9947 27.2524 13.4372 27.7581 13.7394C28.2637 14.0423 28.9295 14.1934 29.758 14.1934C30.4609 14.1934 31.0069 14.1152 31.3966 13.9594C31.7862 13.8037 32.116 13.4774 32.386 12.9808C32.6556 12.4841 32.8718 11.806 33.0359 10.9452H30.0325V9.78205H33.9171C34.206 9.78205 34.4206 9.85799 34.5601 10.0091C34.6999 10.1602 34.7985 10.3919 34.856 10.7042L35.7799 15.1721H34.5088L33.7869 12.123C33.5558 12.9366 33.2813 13.579 32.9643 14.0516C32.6075 14.5909 32.1965 14.9575 31.7296 15.1512C31.2624 15.3449 30.591 15.4418 29.7155 15.4418C28.4925 15.4418 27.5301 15.2364 26.8272 14.825C26.1241 14.4135 25.5758 13.83 25.1806 13.0737C24.7861 12.3175 24.5889 11.414 24.5889 10.3648C24.5889 9.31559 24.7885 8.40741 25.1885 7.64183C25.5877 6.87625 26.1581 6.28736 26.8996 5.87589C27.6405 5.46442 28.666 5.25909 29.9758 5.25909C31.0635 5.25909 31.9276 5.39158 32.5682 5.65581C33.208 5.92083 33.7452 6.31524 34.1785 6.83984C34.6114 7.36442 34.8907 8.02385 35.0161 8.8181L35.0139 8.81733Z" fill="black"/>
<path d="M37.2227 15.1714V5.52722H45.93V6.73294H38.7824V9.68291H45.6555V10.8599H38.7824V13.9517H45.93V15.1714H37.2227Z" fill="black"/>
<path d="M47.3735 15.1714V5.52722H49.0485L55.7348 13.3566V5.52722H57.2795V15.1714H55.6046L48.9333 7.34199V15.1714H47.3735Z" fill="black"/>
<path d="M68.0384 15.1714L67.3598 13.5263H62.4505L61.7719 15.1714H58.5806L62.6531 5.52722H67.173L71.2305 15.1714H68.0392H68.0384ZM63.4319 11.1862H66.3918L65.0341 7.90999H64.7888L63.4311 11.1862H63.4319Z" fill="black"/>
<path d="M74.5509 8.4198C74.5509 8.67474 74.7268 8.82429 75.0779 8.86692C75.4288 8.90952 75.788 8.95215 76.1539 8.99478C76.5201 9.03738 76.9263 9.08466 77.3745 9.13658C77.8219 9.18848 78.2383 9.24274 78.6234 9.30007C79.0083 9.35664 79.4003 9.43024 79.8004 9.52015C80.1997 9.61003 80.5445 9.76112 80.8331 9.97422C81.1218 10.1873 81.3334 10.4802 81.4681 10.8537C81.6031 11.2272 81.6702 11.6596 81.6702 12.1516C81.6702 13.0497 81.4753 13.7378 81.0857 14.2151C80.6957 14.6924 80.1562 15.0094 79.4682 15.1651C78.7795 15.3209 77.9205 15.3991 76.8908 15.3991C75.8613 15.3991 74.9414 15.3209 74.2195 15.1651C73.4976 15.0094 72.884 14.7041 72.3781 14.2508C71.8724 13.7975 71.6201 13.0024 71.6201 11.868H74.2628C74.2628 12.2554 74.4814 12.5608 74.92 12.7824C75.358 13.0048 75.9858 13.1156 76.805 13.1156C77.6805 13.1156 78.2637 13.021 78.5523 12.832C78.841 12.6429 78.9855 12.4306 78.9855 12.1935C78.9855 11.9951 78.8388 11.8579 78.5451 11.782C78.2517 11.7061 77.881 11.6286 77.4336 11.548C76.9862 11.4674 76.5431 11.4039 76.105 11.3566C75.6672 11.3093 75.2482 11.2644 74.8492 11.2218C74.4499 11.1791 74.0476 11.1009 73.6435 10.9878C73.2397 10.8746 72.8877 10.7204 72.5895 10.5267C72.2915 10.333 72.0555 10.0447 71.882 9.66116C71.7083 9.27838 71.6223 8.85529 71.6223 8.39192C71.6223 7.61702 71.796 7.00411 72.1423 6.55544C72.4887 6.10678 73.0449 5.7922 73.8101 5.61241C74.5752 5.43265 75.5117 5.34277 76.6187 5.34277C77.7254 5.34277 78.6501 5.43265 79.3041 5.61241C79.9589 5.7922 80.5121 6.12074 80.9649 6.59807C81.4168 7.0754 81.6435 7.77744 81.6435 8.70419H79.0729C79.0729 8.41129 78.8607 8.17029 78.4379 7.98045C78.0143 7.79137 77.432 7.69685 76.6906 7.69685C75.7856 7.69685 75.2033 7.76037 74.943 7.88824C74.6835 8.0161 74.5533 8.19355 74.5533 8.4198H74.5509Z" fill="black"/>
<path d="M85.8856 8.4198C85.8856 8.67474 86.0615 8.82429 86.4124 8.86692C86.7636 8.90952 87.1225 8.95215 87.4887 8.99478C87.8548 9.03738 88.2611 9.08466 88.709 9.13658C89.1564 9.18848 89.573 9.24274 89.9579 9.30007C90.343 9.35664 90.7351 9.43024 91.1352 9.52015C91.5342 9.61003 91.879 9.76112 92.1679 9.97422C92.4565 10.1873 92.6679 10.4802 92.8029 10.8537C92.9378 11.2272 93.0049 11.6596 93.0049 12.1516C93.0049 13.0497 92.8101 13.7378 92.4202 14.2151C92.0305 14.6924 91.4909 15.0094 90.803 15.1651C90.1142 15.3209 89.255 15.3991 88.2255 15.3991C87.196 15.3991 86.2761 15.3209 85.5542 15.1651C84.8324 15.0094 84.2185 14.7041 83.7128 14.2508C83.2072 13.7975 82.9546 13.0024 82.9546 11.868H85.5975C85.5975 12.2554 85.8161 12.5608 86.2547 12.7824C86.6925 13.0048 87.3206 13.1156 88.1394 13.1156C89.0153 13.1156 89.5982 13.021 89.8871 12.832C90.1757 12.6429 90.32 12.4306 90.32 12.1935C90.32 11.9951 90.1733 11.8579 89.8798 11.782C89.5864 11.7061 89.2157 11.6286 88.7683 11.548C88.3209 11.4674 87.8775 11.4039 87.4398 11.3566C87.002 11.3093 86.5829 11.2644 86.1836 11.2218C85.7846 11.1791 85.3821 11.1009 84.9783 10.9878C84.5742 10.8746 84.2225 10.7204 83.9242 10.5267C83.6259 10.333 83.3902 10.0447 83.2165 9.66116C83.043 9.27838 82.957 8.85529 82.957 8.39192C82.957 7.61702 83.1304 7.00411 83.4768 6.55544C83.8232 6.10678 84.3794 5.7922 85.1448 5.61241C85.91 5.43265 86.8464 5.34277 87.9534 5.34277C89.0602 5.34277 89.9849 5.43265 90.6389 5.61241C91.2937 5.7922 91.8466 6.12074 92.2996 6.59807C92.7516 7.0754 92.9779 7.77744 92.9779 8.70419H90.4077C90.4077 8.41129 90.1955 8.17029 89.7727 7.98045C89.3488 7.79137 88.7667 7.69685 88.0251 7.69685C87.1201 7.69685 86.538 7.76037 86.2777 7.88824C86.0179 8.0161 85.8878 8.19355 85.8878 8.4198H85.8856Z" fill="black"/>
<path d="M94.1597 15.1714V5.52722H97.1054V15.1714H94.1597Z" fill="black"/>
<path d="M101.193 8.4198C101.193 8.67474 101.369 8.82429 101.72 8.86692C102.071 8.90952 102.43 8.95215 102.796 8.99478C103.162 9.03738 103.568 9.08466 104.016 9.13658C104.464 9.18848 104.88 9.24274 105.265 9.30007C105.65 9.35664 106.042 9.43024 106.442 9.52015C106.841 9.61003 107.186 9.76112 107.475 9.97422C107.764 10.1873 107.975 10.4802 108.11 10.8537C108.245 11.2272 108.312 11.6596 108.312 12.1516C108.312 13.0497 108.117 13.7378 107.727 14.2151C107.338 14.6924 106.798 15.0094 106.11 15.1651C105.421 15.3209 104.562 15.3991 103.533 15.3991C102.503 15.3991 101.583 15.3209 100.861 15.1651C100.139 15.0094 99.5256 14.7041 99.0199 14.2508C98.5143 13.7975 98.2617 13.0024 98.2617 11.868H100.905C100.905 12.2554 101.123 12.5608 101.562 12.7824C102 13.0048 102.628 13.1156 103.447 13.1156C104.322 13.1156 104.905 13.021 105.194 12.832C105.483 12.6429 105.627 12.4306 105.627 12.1935C105.627 11.9951 105.48 11.8579 105.187 11.782C104.894 11.7061 104.523 11.6286 104.075 11.548C103.628 11.4674 103.185 11.4039 102.747 11.3566C102.309 11.3093 101.89 11.2644 101.491 11.2218C101.092 11.1791 100.689 11.1009 100.285 10.9878C99.8813 10.8746 99.5296 10.7204 99.2313 10.5267C98.9331 10.333 98.6974 10.0447 98.5236 9.66116C98.3502 9.27838 98.2641 8.85529 98.2641 8.39192C98.2641 7.61702 98.4376 7.00411 98.7839 6.55544C99.1303 6.10678 99.6865 5.7922 100.452 5.61241C101.217 5.43265 102.154 5.34277 103.26 5.34277C104.367 5.34277 105.292 5.43265 105.946 5.61241C106.601 5.7922 107.154 6.12074 107.607 6.59807C108.059 7.0754 108.285 7.77744 108.285 8.70419H105.715C105.715 8.41129 105.503 8.17029 105.08 7.98045C104.656 7.79137 104.074 7.69685 103.332 7.69685C102.427 7.69685 101.845 7.76037 101.585 7.88824C101.325 8.0161 101.195 8.19355 101.195 8.4198H101.193Z" fill="black"/>
<path d="M112.802 15.1714V7.86736H109.034V5.52722H119.517V7.86736H115.748V15.1714H112.802Z" fill="black"/>
</g>
<defs>
<clipPath id="clip0_3203_12376">
<rect width="120" height="21" fill="white"/>
</clipPath>
</defs>
</svg>
